<svg width="498" height="214" viewBox="0 0 498 214" fill="none" xmlns="http://www.w3.org/2000/svg">
<g opacity="0.3">
<path d="M91.0547 208V150.715H0V130.344L91.0547 5.65625H116.348V128.703H143.418V150.715H116.348V208H91.0547ZM26.3867 128.703H92.832V38.7422L26.3867 128.703Z" fill="white"/>
<path d="M250.605 213.059C229.733 213.059 212.826 203.26 199.883 183.664C187.031 163.977 180.605 138.319 180.605 106.691C180.605 74.7904 187.077 49.1328 200.02 29.7188C213.053 10.3047 230.189 0.597656 251.426 0.597656C272.663 0.597656 289.753 10.3047 302.695 29.7188C315.729 49.1328 322.246 74.6536 322.246 106.281C322.246 138.729 315.729 164.66 302.695 184.074C289.753 203.397 272.389 213.059 250.605 213.059ZM250.879 192.824C279.408 192.824 293.672 163.84 293.672 105.871C293.672 49.1784 279.59 20.832 251.426 20.832C223.353 20.832 209.316 49.4518 209.316 106.691C209.316 164.113 223.171 192.824 250.879 192.824Z" fill="white"/>
<path d="M445.43 208V150.715H354.375V130.344L445.43 5.65625H470.723V128.703H497.793V150.715H470.723V208H445.43ZM380.762 128.703H447.207V38.7422L380.762 128.703Z" fill="white"/>
</g>
</svg>
