<svg width="32" height="32" viewBox="0 0 32 32" fill="none" xmlns="http://www.w3.org/2000/svg">
<path d="M15.9993 28.0001C15.8238 28.0012 15.6499 27.9675 15.4874 27.9012C15.325 27.8348 15.1772 27.7371 15.0526 27.6135L4.69263 17.2401C3.39312 15.927 2.66418 14.1542 2.66418 12.3068C2.66418 10.4594 3.39312 8.68658 4.69263 7.37348C6.00232 6.06749 7.77641 5.33411 9.62597 5.33411C11.4755 5.33411 13.2496 6.06749 14.5593 7.37348L15.9993 8.81348L17.4393 7.37348C18.749 6.06749 20.5231 5.33411 22.3726 5.33411C24.2222 5.33411 25.9963 6.06749 27.306 7.37348C28.6055 8.68658 29.3344 10.4594 29.3344 12.3068C29.3344 14.1542 28.6055 15.927 27.306 17.2401L16.946 27.6135C16.8214 27.7371 16.6736 27.8348 16.5112 27.9012C16.3487 27.9675 16.1748 28.0012 15.9993 28.0001Z" fill="#F55050"/>
</svg>
