<svg width="24" height="24" viewBox="0 0 24 24" fill="none" xmlns="http://www.w3.org/2000/svg">
<path fill-rule="evenodd" clip-rule="evenodd" d="M12.0001 2C9.28412 2 8.94412 2.012 7.87712 2.06C6.81312 2.109 6.08612 2.278 5.45012 2.525C4.78261 2.77584 4.17788 3.16933 3.67812 3.678C3.16948 4.17777 2.776 4.7825 2.52512 5.45C2.27812 6.086 2.10912 6.813 2.06012 7.877C2.01112 8.944 2.00012 9.284 2.00012 12C2.00012 14.716 2.01112 15.056 2.06012 16.123C2.10912 17.187 2.27812 17.914 2.52512 18.55C2.77602 19.2175 3.1695 19.8222 3.67812 20.322C4.17792 20.8306 4.78264 21.2241 5.45012 21.475C6.08612 21.722 6.81312 21.891 7.87712 21.94C8.94412 21.988 9.28412 22 12.0001 22C14.7161 22 15.0561 21.988 16.1231 21.94C17.1871 21.891 17.9141 21.722 18.5501 21.475C19.2176 21.2241 19.8223 20.8306 20.3221 20.322C20.8308 19.8222 21.2242 19.2175 21.4751 18.55C21.7221 17.914 21.8911 17.187 21.9401 16.123C21.9881 15.056 22.0001 14.716 22.0001 12C22.0001 9.284 21.9881 8.944 21.9401 7.877C21.8911 6.813 21.7221 6.086 21.4751 5.45C21.2242 4.7825 20.8308 4.17777 20.3221 3.678C19.8224 3.16933 19.2176 2.77584 18.5501 2.525C17.9141 2.278 17.1871 2.109 16.1231 2.06C15.0561 2.012 14.7161 2 12.0001 2ZM12.0001 3.802C14.6701 3.802 14.9861 3.812 16.0401 3.86C17.0161 3.905 17.5451 4.067 17.8981 4.204C18.3641 4.386 18.6981 4.603 19.0481 4.952C19.3981 5.302 19.6141 5.636 19.7961 6.102C19.9321 6.455 20.0961 6.984 20.1401 7.959C20.1881 9.014 20.1981 9.329 20.1981 12C20.1981 14.67 20.1881 14.986 20.1401 16.04C20.0951 17.016 19.9321 17.545 19.7961 17.898C19.6358 18.3324 19.3802 18.7253 19.0481 19.048C18.6981 19.398 18.3641 19.614 17.8981 19.796C17.5451 19.932 17.0161 20.096 16.0411 20.14C14.9871 20.188 14.6711 20.198 12.0001 20.198C9.33012 20.198 9.01312 20.188 7.96012 20.14C6.98412 20.095 6.45512 19.932 6.10212 19.796C5.66771 19.6357 5.27474 19.3801 4.95212 19.048C4.61998 18.7254 4.36438 18.3324 4.20412 17.898C4.06712 17.545 3.90412 17.016 3.86012 16.041C3.81212 14.986 3.80212 14.671 3.80212 12C3.80212 9.33 3.81212 9.014 3.86012 7.96C3.90512 6.984 4.06712 6.455 4.20412 6.102C4.38612 5.636 4.60312 5.302 4.95212 4.952C5.30212 4.602 5.63612 4.386 6.10212 4.204C6.45512 4.067 6.98412 3.904 7.95912 3.86C9.01412 3.812 9.32912 3.802 12.0001 3.802ZM12.0001 15.333C11.1162 15.333 10.2684 14.9818 9.64334 14.3568C9.01828 13.7317 8.66712 12.884 8.66712 12C8.66712 11.116 9.01828 10.2683 9.64334 9.64321C10.2684 9.01815 11.1162 8.667 12.0001 8.667C12.8841 8.667 13.7318 9.01815 14.3569 9.64321C14.982 10.2683 15.3331 11.116 15.3331 12C15.3331 12.884 14.982 13.7317 14.3569 14.3568C13.7318 14.9818 12.8841 15.333 12.0001 15.333ZM12.0001 6.865C11.3258 6.865 10.658 6.99782 10.035 7.25588C9.41204 7.51394 8.84596 7.89218 8.36913 8.36901C7.8923 8.84584 7.51406 9.41191 7.256 10.0349C6.99794 10.6579 6.86512 11.3257 6.86512 12C6.86512 12.6743 6.99794 13.3421 7.256 13.9651C7.51406 14.5881 7.8923 15.1542 8.36913 15.631C8.84596 16.1078 9.41204 16.4861 10.035 16.7441C10.658 17.0022 11.3258 17.135 12.0001 17.135C13.362 17.135 14.6681 16.594 15.6311 15.631C16.5941 14.668 17.1351 13.3619 17.1351 12C17.1351 10.6381 16.5941 9.33201 15.6311 8.36901C14.6681 7.40601 13.362 6.865 12.0001 6.865ZM18.5381 6.662C18.5381 6.81959 18.5071 6.97563 18.4468 7.12122C18.3865 7.26681 18.2981 7.3991 18.1866 7.51053C18.0752 7.62196 17.9429 7.71035 17.7973 7.77066C17.6518 7.83096 17.4957 7.862 17.3381 7.862C17.1805 7.862 17.0245 7.83096 16.8789 7.77066C16.7333 7.71035 16.601 7.62196 16.4896 7.51053C16.3782 7.3991 16.2898 7.26681 16.2295 7.12122C16.1692 6.97563 16.1381 6.81959 16.1381 6.662C16.1381 6.34374 16.2646 6.03852 16.4896 5.81347C16.7146 5.58843 17.0199 5.462 17.3381 5.462C17.6564 5.462 17.9616 5.58843 18.1866 5.81347C18.4117 6.03852 18.5381 6.34374 18.5381 6.662Z" fill="white"/>
</svg>
