<svg width="191" height="40" viewBox="0 0 191 40" fill="none" xmlns="http://www.w3.org/2000/svg">
<path d="M114.602 9.01893H106.602V26.6686H102.848V0.38209H121.249C122.032 0.376664 122.813 0.458026 123.578 0.624695C124.255 0.767942 124.902 1.02864 125.489 1.39498C126.04 1.73651 126.494 2.21503 126.805 2.78391C127.135 3.43495 127.296 4.15886 127.272 4.88853C127.301 5.59927 127.14 6.30487 126.805 6.9325C126.497 7.4648 126.048 7.90145 125.507 8.19406C124.909 8.50797 124.264 8.72303 123.597 8.83091C122.827 8.96068 122.048 9.02358 121.267 9.01893H118.902L129.116 26.6686H124.743L114.602 9.01893ZM106.602 7.8908H120.497C120.975 7.90246 121.453 7.86383 121.923 7.77556C122.231 7.72619 122.511 7.56675 122.711 7.32674C122.906 7.05812 123.023 6.74142 123.051 6.41089C123.105 5.90533 123.129 5.39698 123.123 4.88853C123.127 4.36801 123.103 3.84766 123.051 3.32978C123.022 2.95619 122.906 2.59462 122.711 2.27443C122.522 1.99094 122.245 1.77774 121.923 1.66791C121.46 1.53121 120.979 1.46977 120.497 1.48596H106.602V7.8908Z" fill="white"/>
<path d="M18.238 37.5134H19.912C20.092 37.5036 20.2709 37.5457 20.4276 37.6347C20.5498 37.7102 20.6518 37.8142 20.7248 37.9379C20.7972 38.0592 20.8465 38.1929 20.8703 38.3322C20.8937 38.4623 20.9058 38.5942 20.9067 38.7264C20.9065 38.8697 20.8882 39.0123 20.8521 39.151C20.8172 39.292 20.7531 39.4243 20.6641 39.5391C20.563 39.6624 20.4341 39.7601 20.2881 39.8242C20.0966 39.9054 19.8893 39.9426 19.6816 39.9334H17.7407V36.5369H20.4579L20.373 36.6764H18.238V37.5134ZM18.238 37.6589V39.7939H19.6452C19.7934 39.8002 19.941 39.7711 20.0758 39.709C20.1761 39.6607 20.2588 39.5822 20.3123 39.4845C20.3632 39.3779 20.3941 39.2627 20.4033 39.1449C20.4033 39.0155 20.4033 38.876 20.4033 38.7264C20.4033 38.5768 20.4033 38.4373 20.4033 38.3079C20.3949 38.1899 20.364 38.0746 20.3123 37.9683C20.2596 37.8577 20.1693 37.7696 20.0576 37.7196C19.9223 37.6598 19.7747 37.6328 19.627 37.6407L18.238 37.6589Z" fill="white"/>
<path d="M25.6922 36.9066L23.1387 39.9392H22.7991V36.5427H23.2782V39.4601H23.3449L25.8074 36.5427H26.2441V39.9392H25.7589V36.9066H25.6922Z" fill="white"/>
<path d="M28.2577 39.9392H28.0879L30.047 36.5427H30.0955L32.0606 39.9392H31.4966L29.9317 37.222H29.8226L28.2577 39.9392Z" fill="white"/>
<path d="M34.329 37.5132H36.2456L36.1607 37.6587H34.329V39.7937H36.9976L36.9188 39.9392H33.8438V36.5427H36.8036L36.7247 36.6883H34.329V37.5132Z" fill="white"/>
<path d="M41.6072 36.5427L41.5284 36.6883H40.1637L40.1516 39.9392H39.7149V36.6883H38.2592L38.3442 36.5427H41.6072Z" fill="white"/>
<path d="M43.9363 38.4836H45.5617C45.7797 38.465 45.9965 38.5301 46.1683 38.6655C46.235 38.7378 46.2861 38.823 46.3185 38.9159C46.3508 39.0087 46.3637 39.1073 46.3563 39.2053C46.358 39.3264 46.3417 39.447 46.3077 39.5632C46.2722 39.6519 46.2109 39.7279 46.1319 39.7815C46.0368 39.8445 45.9292 39.8859 45.8165 39.9028C45.6581 39.9292 45.4978 39.9413 45.3373 39.9392H43.445V36.5427H43.9302L43.9363 38.4836ZM43.9363 38.6292V39.7937H45.2949C45.3896 39.8049 45.4852 39.8049 45.5799 39.7937C45.6456 39.7796 45.7064 39.7482 45.7558 39.7027C45.8069 39.6541 45.8409 39.5903 45.8529 39.5207C45.8638 39.426 45.8638 39.3304 45.8529 39.2357C45.8636 39.143 45.8636 39.0494 45.8529 38.9567C45.8375 38.8902 45.8038 38.8293 45.7556 38.781C45.7073 38.7328 45.6464 38.6991 45.5799 38.6837C45.4852 38.6731 45.3896 38.6731 45.2949 38.6837L43.9363 38.6292ZM46.7444 36.5427H47.2297V39.9392H46.7444V36.5427Z" fill="white"/>
<path d="M54.5261 37.5132H57.2918V36.5427H57.7771V39.9392H57.2918V37.6587H54.5261V39.9392H54.0409V36.5427H54.5261V37.5132Z" fill="white"/>
<path d="M62.1804 38.6292H60.4579L59.6997 39.9392H59.5299L61.489 36.5427H61.5375L63.5026 39.9392H62.9385L62.1804 38.6292ZM61.2646 37.222L60.5367 38.4836H62.1016L61.3737 37.222H61.2646Z" fill="white"/>
<path d="M73.6254 39.6239C73.4381 39.7463 73.2337 39.8403 73.0189 39.9029C72.7984 39.9682 72.5695 40.0009 72.3396 40C72.0929 39.9993 71.8477 39.9626 71.6118 39.8908C71.3726 39.8168 71.1473 39.7041 70.9446 39.5572C70.7498 39.4093 70.5868 39.2237 70.4654 39.0113C70.3421 38.7733 70.2777 38.5092 70.2777 38.2411C70.2777 37.973 70.3421 37.7088 70.4654 37.4708C70.5849 37.2554 70.7481 37.0674 70.9446 36.9189C71.1444 36.7673 71.3706 36.6542 71.6118 36.5853C71.8477 36.5135 72.0929 36.4767 72.3396 36.4761C72.5695 36.4752 72.7984 36.5079 73.0189 36.5731C73.2349 36.6354 73.4396 36.7317 73.6254 36.8582L73.4859 37.1008C73.3497 36.943 73.1825 36.815 72.9946 36.7248C72.7809 36.6305 72.5488 36.5849 72.3153 36.5913C72.086 36.594 71.8594 36.6414 71.6481 36.7308C71.4622 36.8131 71.2965 36.9353 71.1629 37.0887C71.0297 37.2372 70.9267 37.4102 70.8597 37.5982C70.7949 37.7938 70.7622 37.9986 70.7626 38.2047C70.7634 38.4107 70.7961 38.6153 70.8597 38.8112C70.9266 39.0046 71.0295 39.1836 71.1629 39.3389C71.2983 39.493 71.466 39.6152 71.6542 39.6967C71.8641 39.7898 72.0919 39.8353 72.3214 39.8301C72.5546 39.8335 72.786 39.788 73.0007 39.6967C73.1861 39.6134 73.3515 39.4914 73.4859 39.3389L73.6254 39.6239Z" fill="white"/>
<path d="M79.448 36.5427V39.9392H78.9628V36.6883H76.197V39.9392H75.7118V36.5427H79.448Z" fill="white"/>
<path d="M82.2137 37.5132H84.1303L84.0454 37.6587H82.2137V39.7937H84.8824L84.8035 39.9392H81.7285V36.5427H84.6883L84.6095 36.6883H82.2137V37.5132Z" fill="white"/>
<path d="M88.8308 37.5132L90.2379 39.9392H89.6739L88.3577 37.6587H87.2114V39.9392H86.7262V36.5427H87.2114V37.5132H88.6307L89.2008 36.5427H89.3888L88.8308 37.5132Z" fill="white"/>
<path d="M94.6049 36.5427L94.52 36.6883H93.1553L93.1492 39.9392H92.7125V36.6883H91.2569L91.3357 36.5427H94.6049Z" fill="white"/>
<path d="M98.2986 38.6292H96.5761L95.8179 39.9392H95.6481L97.6072 36.5427H97.6557L99.6208 39.9392H99.0567L98.2986 38.6292ZM97.3827 37.222L96.6549 38.4836H98.2197L97.4919 37.222H97.3827Z" fill="white"/>
<path d="M103.545 37.5132L104.952 39.9392H104.388L103.078 37.6587H101.932V39.9392H101.446V36.5427H101.932V37.5132H103.345L103.915 36.5427H104.103L103.545 37.5132Z" fill="white"/>
<path d="M106.82 39.9392H106.65L108.609 36.5427H108.658L110.623 39.9392H110.065L108.494 37.222H108.391L106.82 39.9392Z" fill="white"/>
<path d="M115.354 36.9066L112.8 39.9392H112.461V36.5427H112.946V39.4601H113.007L115.469 36.5427H115.906V39.9392H115.421V36.9066H115.354Z" fill="white"/>
<path d="M124.803 37.5132L126.211 39.9392H125.647L124.33 37.6587H123.184V39.9392H122.705V36.5427H123.184V37.5132H124.603L125.173 36.5427H125.361L124.803 37.5132Z" fill="white"/>
<path d="M130.444 38.6292H128.722L127.963 39.9392H127.794L129.753 36.5427H129.838L131.803 39.9392H131.239L130.444 38.6292ZM129.528 37.222L128.8 38.4836H130.365L129.637 37.222H129.528Z" fill="white"/>
<path d="M136.885 38.5502C136.887 38.7958 136.827 39.0379 136.709 39.2538C136.596 39.4413 136.438 39.5976 136.249 39.7087C136.051 39.8254 135.833 39.9036 135.606 39.9392C135.365 39.9788 135.121 39.991 134.878 39.9755C134.633 39.9555 134.391 39.9108 134.156 39.8421C133.943 39.7799 133.739 39.6902 133.549 39.5752L133.689 39.3326C133.835 39.4845 134.008 39.6079 134.198 39.6965C134.389 39.7875 134.595 39.843 134.805 39.8603C135.008 39.8854 135.213 39.8731 135.412 39.8239C135.602 39.7848 135.781 39.7063 135.939 39.5934C136.104 39.4776 136.236 39.3214 136.323 39.1398C136.41 38.9582 136.449 38.7573 136.437 38.5563C136.441 38.3848 136.406 38.2145 136.333 38.0589C136.285 37.9491 136.205 37.8562 136.103 37.7921C136.009 37.7334 135.903 37.6942 135.794 37.6768H135.49H134.69L134.775 37.5313H135.678C135.726 37.5337 135.774 37.5251 135.818 37.5062C135.863 37.4872 135.902 37.4585 135.933 37.4221C135.991 37.3407 136.021 37.2428 136.018 37.1431C136.017 37.0959 136.006 37.0494 135.987 37.0066C135.967 36.9638 135.938 36.9256 135.903 36.8944C135.817 36.8147 135.716 36.7528 135.606 36.7125C135.471 36.6625 135.33 36.6299 135.187 36.6154C135.026 36.5943 134.863 36.5943 134.702 36.6154C134.536 36.6412 134.377 36.6945 134.229 36.7731C134.075 36.8541 133.938 36.9655 133.828 37.1006L133.683 36.852C133.837 36.7405 134.01 36.6564 134.192 36.6033C134.39 36.5408 134.593 36.5002 134.799 36.482C135.001 36.4617 135.204 36.4617 135.405 36.482C135.591 36.4993 135.774 36.538 135.951 36.5972C136.095 36.6409 136.228 36.7154 136.339 36.8156C136.387 36.8529 136.426 36.9008 136.452 36.9555C136.479 37.0102 136.492 37.0703 136.491 37.131C136.492 37.2276 136.46 37.3216 136.4 37.3978C136.32 37.4814 136.212 37.5331 136.097 37.5434C136.19 37.557 136.282 37.5814 136.37 37.6162C136.467 37.6575 136.556 37.7173 136.631 37.7921C136.715 37.879 136.781 37.9822 136.825 38.0953C136.882 38.2421 136.909 38.3989 136.904 38.5563" fill="white"/>
<path d="M141.07 38.6292H139.348L138.59 39.9392H138.42L140.379 36.5427H140.427L142.393 39.9392H141.828L141.07 38.6292ZM140.148 37.222L139.421 38.4836H140.985L140.258 37.222H140.148Z" fill="white"/>
<path d="M145.977 37.6345L146.39 37.1371L146.675 36.7975L146.893 36.5427H147.081L146.068 37.7558L146.705 38.5139L147.311 39.2175L147.918 39.9453H147.311L145.789 38.1257L144.273 39.9453H144.085L144.6 39.3388L145.122 38.7323L145.698 38.0469L144.485 36.5731H145.092L145.977 37.6345Z" fill="white"/>
<path d="M152.594 39.6239C152.407 39.7463 152.203 39.8403 151.988 39.9029C151.767 39.9682 151.538 40.0009 151.308 40C151.062 39.9993 150.817 39.9626 150.581 39.8908C150.341 39.8168 150.116 39.7041 149.913 39.5572C149.719 39.4093 149.556 39.2237 149.434 39.0113C149.311 38.7733 149.247 38.5092 149.247 38.2411C149.247 37.973 149.311 37.7088 149.434 37.4708C149.554 37.2554 149.717 37.0674 149.913 36.9189C150.113 36.7673 150.339 36.6542 150.581 36.5853C150.817 36.5135 151.062 36.4767 151.308 36.4761C151.538 36.4752 151.767 36.5079 151.988 36.5731C152.204 36.6354 152.408 36.7317 152.594 36.8582L152.455 37.1008C152.311 36.9329 152.131 36.7998 151.928 36.7115C151.725 36.6233 151.505 36.5822 151.284 36.5913C151.055 36.594 150.828 36.6414 150.617 36.7308C150.43 36.8145 150.263 36.9364 150.126 37.0887C149.997 37.239 149.896 37.4117 149.828 37.5982C149.762 37.7935 149.727 37.9983 149.725 38.2047C149.728 38.411 149.763 38.6156 149.828 38.8112C149.895 39.0046 149.998 39.1836 150.132 39.3389C150.267 39.493 150.435 39.6152 150.623 39.6967C150.833 39.7904 151.061 39.8359 151.29 39.8301C151.523 39.8335 151.755 39.788 151.97 39.6967C152.155 39.6134 152.32 39.4914 152.455 39.3389L152.594 39.6239Z" fill="white"/>
<path d="M157.592 36.5427L157.513 36.6883H156.148L156.136 39.9392H155.7V36.6883H154.244L154.329 36.5427H157.592Z" fill="white"/>
<path d="M161.267 38.6292H159.557L158.793 39.9392H158.623L160.588 36.5427H160.631L162.596 39.9392H162.038L161.267 38.6292ZM160.352 37.222L159.624 38.4836H161.183L160.455 37.222H160.352Z" fill="white"/>
<path d="M164.822 37.5132H167.587V36.5427H168.073V39.9392H167.587V37.6587H164.822V39.9392H164.336V36.5427H164.822V37.5132Z" fill="white"/>
<path d="M172.482 38.6292H170.759L169.995 39.9392H169.825L171.785 36.5427H171.833L173.798 39.9392H173.234L172.482 38.6292ZM171.56 37.222L170.838 38.4836H172.397L171.669 37.222H171.56Z" fill="white"/>
<path d="M25.9166 0.36377L25.2737 1.4919H14.7263L14.6474 26.6503H11.2691V1.4919H0L0.642911 0.36377H25.9166Z" fill="white"/>
<path d="M100.142 0.36377L99.4995 1.4919H88.9522L88.8733 26.6503H85.495V1.4919H74.2259L74.8688 0.36377H100.142Z" fill="white"/>
<path d="M50.329 26.6503H48.94L67.3782 0.36377H68.7671L59.5663 13.507H69.5192V0.36377H72.7277V26.6503H69.5192V14.6352H58.7778L50.329 26.6503Z" fill="white"/>
<path d="M72.7277 0.667066H67.166L67.5905 0.0605469H72.7277V0.667066Z" fill="white"/>
<path d="M25.0553 12.6763V13.1251C25.0553 22.1016 29.6042 26.9477 36.6641 26.9477C42.2198 26.9477 46.5382 24.7642 48.9461 21.1251L49.5041 21.5375C46.9507 25.3707 42.335 27.6027 36.4761 27.6027C27.7968 27.6027 21.3131 22.047 21.3131 13.7073C21.3131 5.48294 27.4329 0 36.561 0C43.7118 0.0181956 49.777 4.56103 49.777 11.3965V11.5845C49.7462 11.8966 49.5957 12.1847 49.3571 12.3882C49.1185 12.5918 48.8104 12.695 48.4973 12.6763H25.0553ZM45.9014 11.7362C46.0894 11.7362 46.1986 11.6209 46.1986 11.3965C46.1986 4.97346 42.335 0.691432 36.4943 0.691432C29.4344 0.691432 25.4495 4.63987 25.0796 11.997L45.9014 11.7362Z" fill="white"/>
<path d="M130.893 24.3761C130.888 23.7868 131.117 23.2197 131.53 22.7991C131.736 22.5769 131.987 22.4013 132.266 22.2842C132.545 22.167 132.846 22.1109 133.149 22.1198C133.742 22.1352 134.307 22.3781 134.725 22.7981C135.144 23.2181 135.386 23.783 135.399 24.3761C135.408 24.6773 135.352 24.9769 135.236 25.255C135.12 25.5331 134.946 25.7835 134.726 25.9894C134.3 26.3904 133.734 26.6082 133.149 26.5959C132.85 26.6069 132.553 26.5563 132.274 26.4472C131.996 26.3381 131.743 26.1728 131.532 25.9617C131.32 25.7506 131.154 25.4982 131.044 25.2202C130.934 24.9422 130.883 24.6445 130.893 24.3457" fill="white"/>
<path d="M155.154 7.87248L166.047 26.6503H161.686L151.509 9.00061H142.647V26.6503H138.893V0.36377H142.647V7.87248H153.613L158.01 0.36377H159.472L155.154 7.87248Z" fill="white"/>
<path d="M167.921 1.4919L168.594 0.36377H190.532L172.955 25.5222H190.532L189.889 26.6503H167.921L185.534 1.4919H167.921Z" fill="white"/>
</svg>
