<svg width="172" height="26" viewBox="0 0 172 26" fill="none" xmlns="http://www.w3.org/2000/svg">
<path d="M100.087 15.6515C100.087 13.8751 100.706 12.3973 101.944 11.2183C103.182 10.0235 104.695 9.42613 106.481 9.42613C108.284 9.42613 109.804 10.0157 111.042 11.1947C112.281 12.3738 112.9 13.8594 112.9 15.6515C112.9 17.4437 112.281 18.9371 111.042 20.1319C109.804 21.3267 108.292 21.924 106.505 21.924C104.718 21.924 103.198 21.3267 101.944 20.1319C100.706 18.9371 100.087 17.4437 100.087 15.6515ZM102.414 15.6515C102.414 16.8934 102.806 17.9231 103.59 18.7406C104.389 19.5424 105.361 19.9432 106.505 19.9432C107.633 19.9432 108.597 19.5345 109.397 18.717C110.196 17.8996 110.596 16.8777 110.596 15.6515C110.596 14.4253 110.196 13.4113 109.397 12.6096C108.597 11.8078 107.633 11.4069 106.505 11.4069C105.361 11.4069 104.389 11.8078 103.59 12.6096C102.806 13.4113 102.414 14.4253 102.414 15.6515Z" fill="white"/>
<path d="M115.212 21.6411V11.5484H113.73V9.7091H115.212V9.30823C115.212 8.55363 115.321 7.90123 115.541 7.351C115.76 6.78506 116.027 6.35274 116.34 6.05405C116.669 5.73964 117.045 5.49597 117.469 5.32304C117.907 5.13439 118.299 5.01649 118.644 4.96932C118.989 4.90644 119.342 4.875 119.702 4.875C119.968 4.875 120.258 4.89858 120.572 4.94574V6.92655C120.446 6.8951 120.251 6.87938 119.984 6.87938C118.323 6.87938 117.492 7.69686 117.492 9.33181V9.7091H123.158V9.30823C123.158 8.55363 123.268 7.90123 123.487 7.351C123.707 6.78506 123.973 6.35274 124.287 6.05405C124.616 5.73964 124.992 5.49597 125.415 5.32304C125.854 5.13439 126.246 5.01649 126.591 4.96932C126.935 4.90644 127.288 4.875 127.648 4.875C127.915 4.875 128.205 4.89858 128.518 4.94574V6.92655C128.393 6.8951 128.197 6.87938 127.931 6.87938C126.269 6.87938 125.439 7.69686 125.439 9.33181V9.7091H128.236V11.5484H125.439V21.6411H123.158V11.5484H117.492V21.6411H115.212ZM130.352 21.6411V4.9929H132.633V17.986C132.633 18.6306 132.633 19.6771 132.633 19.6771C132.633 19.6771 133.518 19.6839 133.926 19.6839C134.143 19.6839 134.143 19.6839 134.325 19.6839V21.6411C134.089 21.6411 133.002 21.6411 132.83 21.6411C130.682 21.6411 130.352 21.6411 130.352 21.6411Z" fill="white"/>
<path d="M135.756 7.30384V4.9929H138.107V7.30384H135.756ZM135.803 21.6411V9.7091H138.084V21.6411H135.803Z" fill="white"/>
<path d="M140.749 21.6411V9.7091H142.959V11.3362L142.889 12.2323H142.936C143.234 11.4934 143.774 10.841 144.558 10.275C145.342 9.7091 146.18 9.42613 147.074 9.42613C149.033 9.42613 150.216 10.3301 150.624 12.1379H150.671C151.015 11.3991 151.572 10.7624 152.34 10.2279C153.124 9.69338 153.978 9.42613 154.903 9.42613C156.25 9.42613 157.238 9.80343 157.865 10.558C158.507 11.3126 158.829 12.4602 158.829 14.0008V21.6411H156.548V14.496C156.548 13.5371 156.399 12.7982 156.102 12.2794C155.819 11.7606 155.271 11.5013 154.456 11.5013C153.406 11.5013 152.551 11.965 151.893 12.8925C151.251 13.8043 150.929 14.8655 150.929 16.076V21.6411H148.649V14.496C148.649 13.5528 148.508 12.8218 148.226 12.303C147.959 11.7685 147.418 11.5013 146.603 11.5013C145.538 11.5013 144.676 11.965 144.017 12.8925C143.359 13.8201 143.03 14.8812 143.03 16.076V21.6411H140.749Z" fill="white"/>
<path d="M160.624 15.6751C160.624 13.8043 161.188 12.2951 162.316 11.1475C163.445 9.99993 164.871 9.42613 166.595 9.42613C168.21 9.42613 169.471 9.96063 170.381 11.0296C171.29 12.0829 171.744 13.4113 171.744 15.0148C171.744 15.2192 171.713 15.5415 171.65 15.9816H162.998C163.061 17.2236 163.476 18.1983 164.244 18.9057C165.028 19.5974 165.976 19.9432 167.089 19.9432C168.39 19.9432 169.558 19.4795 170.592 18.552L171.556 20.2262C170.992 20.745 170.286 21.1616 169.44 21.476C168.609 21.7747 167.779 21.924 166.948 21.924C165.099 21.924 163.578 21.3345 162.387 20.1555C161.211 18.9607 160.624 17.4672 160.624 15.6751ZM163.069 14.331H169.44C169.409 13.3406 169.119 12.5703 168.57 12.02C168.037 11.4698 167.363 11.1947 166.548 11.1947C165.655 11.1947 164.887 11.4777 164.244 12.0436C163.617 12.5938 163.226 13.3563 163.069 14.331Z" fill="white"/>
<path d="M95.3017 0L98.6316 1.37828e-06L89.6112 26H86.2837L95.3017 0Z" fill="url(#paint0_linear)"/>
<path d="M4.92917 13.5273C4.44505 12.9111 3.67487 12.5811 2.87168 12.5811C2.13451 12.5811 1.43034 12.8671 0.946224 13.3622V12.7461H0V21.3281H1.06725V18.1814C1.52936 18.6325 2.16751 18.8525 2.87168 18.8525C3.68587 18.8525 4.43405 18.5115 4.92917 17.8953C5.42428 17.2682 5.60033 16.498 5.60033 15.7168C5.60033 14.9246 5.40228 14.1324 4.92917 13.5273ZM4.08197 17.2352C3.77389 17.6753 3.25677 17.8843 2.73965 17.8843C2.20052 17.8843 1.72741 17.6863 1.40833 17.3122C1.07826 16.9161 0.946224 16.3109 0.946224 15.7168C0.946224 15.1117 1.07826 14.5175 1.40833 14.1214C1.7054 13.7363 2.18952 13.5493 2.70664 13.5493C3.26777 13.5493 3.76289 13.7473 4.07096 14.1874C4.35703 14.5725 4.46706 15.1337 4.46706 15.7168C4.46706 16.2889 4.36803 16.8501 4.08197 17.2352Z" fill="white"/>
<path d="M7.89932 14.3195C7.93233 14.2535 7.98734 14.1874 8.03135 14.1324C8.32842 13.7583 8.77953 13.5933 9.28565 13.5933C9.69274 13.5823 10.0998 13.6813 10.4079 13.9124C10.672 14.0994 10.837 14.3965 10.881 14.7156L9.73675 14.8806C8.83454 15.0126 8.2294 15.0566 7.59125 15.4197C7.03011 15.7498 6.68903 16.3109 6.68903 16.9491C6.68903 17.3892 6.82106 17.7083 7.07412 18.0824C7.3932 18.5115 7.99834 18.8195 8.60349 18.8415C9.10961 18.8635 9.61573 18.7425 10.0778 18.4895C10.4519 18.3024 10.848 17.9503 11.0351 17.5542V18.6875H11.9813V14.9576C11.9813 14.6165 11.9043 14.2314 11.7282 13.8684C11.2881 12.9771 10.3969 12.5921 9.30765 12.5921C8.38343 12.5921 7.60225 12.9111 7.07412 13.6153L6.92009 13.8464L7.89932 14.3195ZM10.925 15.6068C10.925 15.9809 10.925 16.3219 10.727 16.729C10.4299 17.4882 9.5057 17.8953 8.75752 17.8623C8.17439 17.8293 7.74528 17.3782 7.75629 16.8831C7.76729 16.1239 8.70251 15.9699 9.58272 15.8268C10.1989 15.7168 10.584 15.6618 10.925 15.6068Z" fill="white"/>
<path d="M13.4386 14.0554L14.5058 14.3085C14.5498 14.0884 14.6599 13.9454 14.8799 13.8133C15.122 13.6593 15.4961 13.5933 15.8592 13.5933C16.2222 13.5933 16.5743 13.6593 16.8384 13.8133C17.0804 13.9454 17.2455 14.1874 17.2455 14.4405C17.2455 14.7486 17.1355 14.9686 16.7174 15.1007C16.4643 15.1777 16.1672 15.1887 15.8812 15.1887H15.32V16.0579H15.8812C16.2002 16.0579 16.5083 16.0689 16.7834 16.1459C17.1795 16.2339 17.3775 16.476 17.3775 16.8831C17.3775 17.1911 17.2125 17.4222 16.9264 17.5872C16.6403 17.7523 16.2552 17.8293 15.8592 17.8293C15.4631 17.8293 15.056 17.7523 14.7809 17.5872C14.5498 17.4442 14.4068 17.2352 14.3518 16.9821L13.2955 17.2462C13.4276 17.7743 13.7026 18.2144 14.2528 18.5005C14.7149 18.7535 15.298 18.8415 15.8592 18.8415C16.3983 18.8415 16.9704 18.7645 17.4655 18.5005C18.0377 18.1924 18.4448 17.6313 18.4558 16.9271C18.4668 16.377 18.2797 15.8818 17.8286 15.5738C18.1807 15.2657 18.3237 14.8916 18.3237 14.3855C18.2907 13.7363 17.9717 13.2082 17.3665 12.9001C16.9594 12.6801 16.3653 12.5811 15.8592 12.5811C15.364 12.5811 14.7809 12.6691 14.3408 12.9001C13.8897 13.1312 13.5486 13.5163 13.4386 14.0554Z" fill="white"/>
<path d="M24.8106 13.5273C24.3265 12.9111 23.5563 12.5811 22.7531 12.5811C22.0159 12.5811 21.3118 12.8671 20.8277 13.3622V12.7461H19.8814V21.3281H20.9487V18.1814C21.4108 18.6325 22.0489 18.8525 22.7531 18.8525C23.5673 18.8525 24.3155 18.5115 24.8106 17.8953C25.3057 17.2682 25.4818 16.498 25.4818 15.7168C25.4818 14.9246 25.2837 14.1324 24.8106 13.5273ZM23.9634 17.2352C23.6553 17.6753 23.1382 17.8843 22.6211 17.8843C22.082 17.8843 21.6088 17.6863 21.2898 17.3122C20.9597 16.9161 20.8277 16.3109 20.8277 15.7168C20.8277 15.1117 20.9597 14.5175 21.2898 14.1214C21.5868 13.7363 22.0709 13.5493 22.5881 13.5493C23.1492 13.5493 23.6443 13.7473 23.9524 14.1874C24.2385 14.5725 24.3485 15.1337 24.3485 15.7168C24.3485 16.2889 24.2495 16.8501 23.9634 17.2352Z" fill="white"/>
<path d="M27.7808 14.3195C27.8138 14.2535 27.8688 14.1874 27.9128 14.1324C28.2099 13.7583 28.661 13.5933 29.1671 13.5933C29.5742 13.5823 29.9813 13.6813 30.2893 13.9124C30.5534 14.0994 30.7184 14.3965 30.7625 14.7156L29.6182 14.8806C28.716 15.0126 28.1108 15.0566 27.4727 15.4197C26.9115 15.7498 26.5705 16.3109 26.5705 16.9491C26.5705 17.3892 26.7025 17.7083 26.9556 18.0824C27.2746 18.5115 27.8798 18.8195 28.4849 18.8415C28.991 18.8635 29.4972 18.7425 29.9593 18.4895C30.3334 18.3024 30.7294 17.9503 30.9165 17.5542V18.6875H31.8627V14.9576C31.8627 14.6165 31.7857 14.2314 31.6097 13.8684C31.1696 12.9771 30.2783 12.5921 29.1891 12.5921C28.2649 12.5921 27.4837 12.9111 26.9556 13.6153L26.8015 13.8464L27.7808 14.3195ZM30.8065 15.6068C30.8065 15.9809 30.8065 16.3219 30.6084 16.729C30.3113 17.4882 29.3871 17.8953 28.639 17.8623C28.0558 17.8293 27.6267 17.3782 27.6377 16.8831C27.6487 16.1239 28.5839 15.9699 29.4641 15.8268C30.0803 15.7168 30.4654 15.6618 30.8065 15.6068Z" fill="white"/>
<path d="M36.0927 13.0762C35.3995 13.0762 34.7834 13.3512 34.3102 13.8464C34.3983 13.1752 34.5743 12.537 35.0914 12.163C35.5865 11.8109 36.3237 11.7449 37.0389 11.7559C37.424 11.7669 37.8861 11.8109 38.3262 11.8659V10.8867C37.9301 10.8206 37.501 10.7656 37.0389 10.7656C36.1477 10.7656 35.2345 10.8646 34.5193 11.3818C33.7821 11.9099 33.419 12.7131 33.287 13.5933C33.177 14.2975 33.166 14.9576 33.188 15.9258C33.221 16.674 33.397 17.3892 33.8921 17.9613C34.4093 18.5555 35.1905 18.8525 35.9496 18.8525C36.7308 18.8745 37.501 18.6105 38.0511 18.0383C38.5573 17.4882 38.8103 16.74 38.7993 15.9809C38.7883 15.2767 38.5903 14.5175 38.1171 13.9564C37.622 13.3622 36.8628 13.0652 36.0927 13.0762ZM35.9936 14.0444C36.4888 14.0334 36.9619 14.2094 37.2589 14.5725C37.556 14.9136 37.666 15.4307 37.666 15.9258C37.666 16.421 37.556 16.9271 37.2589 17.2682C36.9619 17.6313 36.4888 17.7963 35.9936 17.7963C35.4985 17.7963 35.0254 17.6313 34.7283 17.2682C34.4313 16.9271 34.3212 16.432 34.3212 15.9038C34.3212 15.4087 34.4203 14.9136 34.7283 14.5725C35.0254 14.2094 35.4985 14.0334 35.9936 14.0444Z" fill="white"/>
<path d="M42.7693 18.8525C43.6495 18.8525 44.4307 18.5335 44.9698 17.8733C45.465 17.2462 45.663 16.52 45.663 15.7168C45.663 14.9356 45.476 14.1874 44.9698 13.5493C44.4417 12.9001 43.6275 12.5811 42.7693 12.5811C41.9111 12.5811 41.0859 12.9221 40.5798 13.5493C40.0957 14.1544 39.8866 14.9136 39.8866 15.7168C39.8866 16.498 40.0737 17.2462 40.5798 17.8733C41.1079 18.5225 41.9111 18.8525 42.7693 18.8525ZM44.1226 17.2242C43.8146 17.6313 43.3085 17.8403 42.7693 17.8403C42.2302 17.8403 41.7241 17.6313 41.427 17.2242C41.1189 16.8171 41.0199 16.2669 41.0199 15.7168C41.0199 15.1667 41.1189 14.6055 41.427 14.1984C41.7241 13.7913 42.2302 13.5933 42.7693 13.5933C43.3085 13.5933 43.8146 13.7913 44.1226 14.1984C44.4307 14.6055 44.5297 15.1667 44.5297 15.7168C44.5297 16.2669 44.4307 16.8171 44.1226 17.2242Z" fill="white"/>
<path d="M51.7462 12.7461H46.586V13.7033H48.6325V18.6875H49.6997V13.7033H51.7462V12.7461Z" fill="white"/>
<path d="M53.6704 14.3195C53.7034 14.2535 53.7584 14.1874 53.8025 14.1324C54.0995 13.7583 54.5506 13.5933 55.0568 13.5933C55.4639 13.5823 55.871 13.6813 56.179 13.9124C56.4431 14.0994 56.6081 14.3965 56.6521 14.7156L55.5079 14.8806C54.6057 15.0126 54.0005 15.0566 53.3624 15.4197C52.8012 15.7498 52.4601 16.3109 52.4601 16.9491C52.4601 17.3892 52.5922 17.7083 52.8452 18.0824C53.1643 18.5115 53.7695 18.8195 54.3746 18.8415C54.8807 18.8635 55.3868 18.7425 55.8489 18.4895C56.223 18.3024 56.6191 17.9503 56.8062 17.5542V18.6875H57.7524V14.9576C57.7524 14.6165 57.6754 14.2314 57.4993 13.8684C57.0592 12.9771 56.168 12.5921 55.0788 12.5921C54.1545 12.5921 53.3734 12.9111 52.8452 13.6153L52.6912 13.8464L53.6704 14.3195ZM56.6962 15.6068C56.6962 15.9809 56.6961 16.3219 56.4981 16.729C56.201 17.4882 55.2768 17.8953 54.5286 17.8623C53.9455 17.8293 53.5164 17.3782 53.5274 16.8831C53.5384 16.1239 54.4736 15.9699 55.3538 15.8268C55.97 15.7168 56.3551 15.6618 56.6962 15.6068Z" fill="white"/>
<path d="M63.4787 12.7461V15.0126H60.464V12.7461H59.3967V18.6875H60.464V16.0799H63.4787V18.6875H64.535V12.7461H63.4787Z" fill="white"/>
<path d="M68.8344 18.8525C69.7146 18.8525 70.4958 18.5335 71.0349 17.8733C71.53 17.2462 71.728 16.52 71.728 15.7168C71.728 14.9356 71.541 14.1874 71.0349 13.5493C70.5068 12.9001 69.6926 12.5811 68.8344 12.5811C67.9762 12.5811 67.151 12.9221 66.6448 13.5493C66.1607 14.1544 65.9517 14.9136 65.9517 15.7168C65.9517 16.498 66.1387 17.2462 66.6448 17.8733C67.173 18.5225 67.9762 18.8525 68.8344 18.8525ZM70.1877 17.2242C69.8796 17.6313 69.3735 17.8403 68.8344 17.8403C68.2952 17.8403 67.7891 17.6313 67.492 17.2242C67.184 16.8171 67.0849 16.2669 67.0849 15.7168C67.0849 15.1667 67.184 14.6055 67.492 14.1984C67.7891 13.7913 68.2952 13.5933 68.8344 13.5933C69.3735 13.5933 69.8796 13.7913 70.1877 14.1984C70.4958 14.6055 70.5948 15.1667 70.5948 15.7168C70.5948 16.2669 70.4958 16.8171 70.1877 17.2242Z" fill="white"/>
<path d="M75.7401 12.7571V18.6875H79.0959C79.459 18.6875 79.9101 18.5445 80.2182 18.2914C80.5923 17.9723 80.8344 17.4772 80.8344 16.9821C80.8344 16.652 80.7133 16.2999 80.5043 16.0469C80.3832 15.8598 80.2292 15.7168 80.0422 15.5848C80.1192 15.5188 80.1852 15.4417 80.2512 15.3647C80.4273 15.1007 80.5263 14.7816 80.5263 14.4515C80.5263 13.9564 80.3172 13.5163 79.9541 13.1972C79.6131 12.8891 79.162 12.7461 78.6558 12.7461L75.7401 12.7571ZM76.8184 13.6153H78.6558C78.9419 13.6153 79.1179 13.7143 79.272 13.9234C79.393 14.0884 79.437 14.2645 79.437 14.4515C79.448 14.6385 79.393 14.8366 79.272 14.9906C79.1289 15.1887 78.9199 15.2877 78.6558 15.2877H76.8184V13.6153ZM76.8184 16.1569H78.8429C79.151 16.1569 79.338 16.2009 79.547 16.421C79.6791 16.586 79.7451 16.7951 79.7451 16.9821C79.7451 17.1911 79.6791 17.3892 79.547 17.5542C79.382 17.7523 79.173 17.8293 78.9089 17.8293H76.8184V16.1569Z" fill="white"/>
<defs>
<linearGradient id="paint0_linear" x1="86.2837" y1="0" x2="99.5319" y2="0.467188" gradientUnits="userSpaceOnUse">
<stop stop-color="#0066FF"/>
<stop offset="1" stop-color="#004FC6"/>
</linearGradient>
</defs>
</svg>
