<svg width="24" height="24" viewBox="0 0 24 24" fill="none" xmlns="http://www.w3.org/2000/svg">
<path d="M19.5525 2.99715C19.3117 3.01467 19.0754 3.07116 18.8527 3.1644H18.8497C18.636 3.24915 17.6197 3.67665 16.0747 4.32465L10.5382 6.6564C6.56547 8.3289 2.66022 9.9759 2.66022 9.9759L2.70672 9.9579C2.70672 9.9579 2.43747 10.0464 2.15622 10.2392C1.98246 10.3497 1.83295 10.4944 1.71672 10.6644C1.57872 10.8669 1.46772 11.1767 1.50897 11.4969C1.57647 12.0384 1.92747 12.3632 2.17947 12.5424C2.43447 12.7239 2.67747 12.8087 2.67747 12.8087H2.68347L6.34572 14.0424C6.50997 14.5697 7.46172 17.6987 7.69047 18.4194C7.82547 18.8499 7.95672 19.1192 8.12097 19.3247C8.20047 19.4297 8.29347 19.5174 8.40522 19.5879C8.46331 19.6217 8.52526 19.6484 8.58972 19.6674L8.55222 19.6584C8.56347 19.6614 8.57247 19.6704 8.58072 19.6734C8.61072 19.6817 8.63097 19.6847 8.66922 19.6907C9.24897 19.8662 9.71472 19.5062 9.71472 19.5062L9.74097 19.4852L11.9032 17.5164L15.5272 20.2967L15.6097 20.3319C16.365 20.6634 17.13 20.4789 17.5342 20.1534C17.9415 19.8257 18.0997 19.4064 18.0997 19.4064L18.126 19.3389L20.9265 4.99215C21.006 4.63815 21.0262 4.30665 20.9385 3.9849C20.848 3.65927 20.639 3.37921 20.3527 3.19965C20.1123 3.05349 19.8335 2.98294 19.5525 2.99715ZM19.4767 4.53465C19.4737 4.5819 19.4827 4.57665 19.4617 4.6674V4.67565L16.6875 18.8732C16.6755 18.8934 16.6552 18.9377 16.5997 18.9819C16.5412 19.0284 16.4947 19.0577 16.251 18.9609L11.8185 15.5627L9.14097 18.0032L9.70347 14.4107L16.9455 7.66065C17.244 7.38315 17.1442 7.32465 17.1442 7.32465C17.1652 6.98415 16.6935 7.2249 16.6935 7.2249L7.56147 12.8822L7.55847 12.8672L3.18147 11.3934V11.3904L3.17022 11.3882C3.17789 11.3856 3.1854 11.3826 3.19272 11.3792L3.21672 11.3672L3.23997 11.3589C3.23997 11.3589 7.14822 9.7119 11.121 8.0394C13.11 7.20165 15.114 6.3579 16.6552 5.7069C18.1965 5.05965 19.3357 4.5849 19.4002 4.5594C19.4617 4.5354 19.4325 4.5354 19.4767 4.5354V4.53465Z" fill="white"/>
</svg>
