<svg width="21" height="21" viewBox="0 0 21 21" fill="none" xmlns="http://www.w3.org/2000/svg">
<g clip-path="url(#clip0)">
<path d="M20.3337 4.4655C19.59 4.79175 18.7975 5.008 17.9712 5.113C18.8212 4.6055 19.47 3.808 19.775 2.84675C18.9825 3.31925 18.1075 3.653 17.175 3.83925C16.4225 3.038 15.35 2.54175 14.18 2.54175C11.91 2.54175 10.0825 4.38425 10.0825 6.643C10.0825 6.968 10.11 7.2805 10.1775 7.578C6.76874 7.41175 3.75249 5.778 1.72624 3.28925C1.37249 3.903 1.16499 4.6055 1.16499 5.36175C1.16499 6.78175 1.89624 8.0405 2.98624 8.76925C2.32749 8.75675 1.68124 8.5655 1.13374 8.26425C1.13374 8.27675 1.13374 8.293 1.13374 8.30925C1.13374 10.3017 2.55499 11.9567 4.41874 12.338C4.08499 12.4292 3.72124 12.473 3.34374 12.473C3.08124 12.473 2.81624 12.458 2.56749 12.403C3.09874 14.0267 4.60624 15.2205 6.39874 15.2592C5.00374 16.3505 3.23249 17.008 1.31499 17.008C0.97874 17.008 0.65624 16.993 0.33374 16.9517C2.14999 18.123 4.30249 18.7917 6.62374 18.7917C14.1687 18.7917 18.2937 12.5417 18.2937 7.12425C18.2937 6.943 18.2875 6.768 18.2787 6.59425C19.0925 6.01675 19.7762 5.2955 20.3337 4.4655Z" fill="#5E5B53"/>
</g>
<defs>
<clipPath id="clip0">
<rect width="20" height="20" fill="white" transform="translate(0.33374 0.666748)"/>
</clipPath>
</defs>
</svg>
