<svg width="58" height="58" viewBox="0 0 58 58" fill="none" xmlns="http://www.w3.org/2000/svg">
<g clip-path="url(#clip0)">
<path d="M21.2661 37.3318L24.2121 20.7604H28.8153L25.9614 37.3318H21.2661Z" fill="#6C6965"/>
<path d="M21.2661 37.3318L25.0407 20.7604H28.8153L25.9614 37.3318H21.2661Z" fill="#6C6965"/>
<path d="M42.6247 20.9444C41.704 20.5761 40.231 20.2079 38.3897 20.2079C33.7866 20.2079 30.4723 22.5095 30.4723 25.8238C30.4723 28.3095 32.7739 29.5984 34.6151 30.4269C36.4564 31.2555 37.0088 31.8079 37.0088 32.5444C37.0088 33.6492 35.5358 34.2015 34.2469 34.2015C32.4056 34.2015 31.3929 33.9254 29.8278 33.2809L29.1834 33.0047L28.5389 36.7793C29.6437 37.2396 31.6691 37.7 33.7866 37.7C38.6659 37.7 41.8881 35.3984 41.8881 31.9C41.8881 29.9666 40.6913 28.4936 37.9294 27.2968C36.2723 26.4682 35.2596 26.0079 35.2596 25.1793C35.2596 24.4428 36.0881 23.7063 37.9294 23.7063C39.4945 23.7063 40.5993 23.9825 41.4278 24.3507L41.8881 24.5349L42.6247 20.9444Z" fill="#6C6965"/>
<path d="M42.6247 20.9444C41.704 20.5761 40.231 20.2079 38.3897 20.2079C33.7866 20.2079 31.3008 22.5095 31.3008 25.8238C31.3008 28.3095 32.7739 29.5984 34.6151 30.4269C36.4564 31.2555 37.0088 31.8079 37.0088 32.5444C37.0088 33.6492 35.5358 34.2015 34.2469 34.2015C32.4056 34.2015 31.3929 33.9254 29.8278 33.2809L29.1834 33.0047L28.5389 36.7793C29.6437 37.2396 31.6691 37.7 33.7866 37.7C38.6659 37.7 41.8881 35.3984 41.8881 31.9C41.8881 29.9666 40.6913 28.4936 37.9294 27.2968C36.2723 26.4682 35.2596 26.0079 35.2596 25.1793C35.2596 24.4428 36.0881 23.7063 37.9294 23.7063C39.4945 23.7063 40.5993 23.9825 41.4278 24.3507L41.8881 24.5349L42.6247 20.9444Z" fill="#6C6965"/>
<path d="M50.5422 20.7604C49.4374 20.7604 48.6089 20.8524 48.1485 21.9572L41.2438 37.3318H46.2152L47.1358 34.5699H53.0279L53.5803 37.3318H57.9993L54.1327 20.7604H50.5422ZM48.4247 31.808C48.7009 30.9794 50.266 26.9286 50.266 26.9286C50.266 26.9286 50.6342 25.9159 50.9104 25.2715L51.1866 26.8366C51.1866 26.8366 52.1073 30.9794 52.2914 31.9001H48.4247V31.808Z" fill="#6C6965"/>
<path d="M51.6469 20.7604C50.5422 20.7604 49.7136 20.8524 49.2533 21.9572L41.2438 37.3318H46.2152L47.1358 34.5699H53.0279L53.5803 37.3318H57.9993L54.1327 20.7604H51.6469ZM48.4247 31.808C48.793 30.8874 50.266 26.9286 50.266 26.9286C50.266 26.9286 50.6342 25.9159 50.9104 25.2715L51.1866 26.8366C51.1866 26.8366 52.1073 30.9794 52.2914 31.9001H48.4247V31.808Z" fill="#6C6965"/>
<path d="M12.7973 32.3603L12.337 29.9667C11.5085 27.2048 8.83861 24.1667 5.89258 22.6937L10.0354 37.4238H15.0069L22.464 20.8524H17.4926L12.7973 32.3603Z" fill="#6C6965"/>
<path d="M12.7973 32.3603L12.337 29.9667C11.5085 27.2048 8.83861 24.1667 5.89258 22.6937L10.0354 37.4238H15.0069L22.464 20.8524H18.4132L12.7973 32.3603Z" fill="#6C6965"/>
<path d="M0 20.7604L0.828571 20.9445C6.72063 22.3255 10.7714 25.8239 12.3365 29.9667L10.6794 22.1413C10.4032 21.0366 9.5746 20.7604 8.5619 20.7604H0Z" fill="#94918E"/>
<path d="M0 20.7604C5.89206 22.1413 10.7714 25.7318 12.3365 29.8747L10.7714 23.3382C10.4952 22.2334 9.5746 21.5889 8.5619 21.5889L0 20.7604Z" fill="#94918E"/>
<path d="M0 20.7604C5.89206 22.1413 10.7714 25.7318 12.3365 29.8747L11.2317 26.2842C10.9556 25.1794 10.5873 24.0747 9.29841 23.6143L0 20.7604Z" fill="#94918E"/>
<path d="M17.4006 31.808L14.2705 28.6779L12.7974 32.1763L12.4292 29.8747C11.6006 27.1128 8.93077 24.0747 5.98474 22.6017L10.1276 37.3319H15.099L17.4006 31.808Z" fill="#6C6965"/>
<path d="M25.9629 37.3318L22.0042 33.281L21.2677 37.3318H25.9629Z" fill="#6C6965"/>
<path d="M36.5499 31.6239C36.9182 31.9922 37.1023 32.2683 37.0102 32.6366C37.0102 33.7414 35.5372 34.2937 34.2483 34.2937C32.4071 34.2937 31.3944 34.0176 29.8293 33.3731L29.1849 33.0969L28.5404 36.8715C29.6452 37.3318 31.6706 37.7922 33.788 37.7922C36.7341 37.7922 39.1277 36.9636 40.5087 35.4906L36.5499 31.6239Z" fill="#6C6965"/>
<path d="M41.89 37.3319H46.217L47.1376 34.57H53.0297L53.5821 37.3319H58.0011L56.436 30.6113L50.9122 25.2716L51.1884 26.7446C51.1884 26.7446 52.1091 30.8875 52.2932 31.8081H48.4265C48.7948 30.8875 50.2678 26.9287 50.2678 26.9287C50.2678 26.9287 50.636 25.9161 50.9122 25.2716" fill="#6C6965"/>
</g>
<defs>
<clipPath id="clip0">
<rect width="58" height="58" fill="white"/>
</clipPath>
</defs>
</svg>
