<svg width="21" height="21" viewBox="0 0 21 21" fill="none" xmlns="http://www.w3.org/2000/svg">
<g clip-path="url(#clip0)">
<path d="M16.9296 11.5234C16.6062 11.115 16.6987 10.9334 16.9296 10.5684C16.9337 10.5642 19.6029 6.87587 19.8779 5.62504L19.8796 5.62421C20.0162 5.16837 19.8796 4.83337 19.2187 4.83337H17.0321C16.4754 4.83337 16.2187 5.12087 16.0812 5.44254C16.0812 5.44254 14.9679 8.10754 13.3929 9.83504C12.8846 10.3342 12.6496 10.4942 12.3721 10.4942C12.2354 10.4942 12.0229 10.3342 12.0229 9.87837V5.62421C12.0229 5.07754 11.8671 4.83337 11.4062 4.83337H7.96791C7.61874 4.83337 7.41124 5.08837 7.41124 5.32587C7.41124 5.84421 8.19874 5.96337 8.28041 7.42171V10.5859C8.28041 11.2792 8.15457 11.4067 7.87541 11.4067C7.13207 11.4067 5.32791 8.73087 4.25874 5.66837C4.04291 5.07421 3.83207 4.83421 3.27124 4.83421H1.08374C0.459574 4.83421 0.33374 5.12171 0.33374 5.44337C0.33374 6.01171 1.07707 8.83754 3.79041 12.5709C5.59874 15.1192 8.14541 16.5 10.4621 16.5C11.8546 16.5 12.0246 16.1934 12.0246 15.6659C12.0246 13.2309 11.8987 13.0009 12.5962 13.0009C12.9196 13.0009 13.4762 13.1609 14.7762 14.39C16.2621 15.8475 16.5062 16.5 17.3379 16.5H19.5246C20.1479 16.5 20.4637 16.1934 20.2821 15.5884C19.8662 14.3159 17.0562 11.6984 16.9296 11.5234Z" fill="#5E5B53"/>
</g>
<defs>
<clipPath id="clip0">
<rect width="20" height="20" fill="white" transform="translate(0.33374 0.666748)"/>
</clipPath>
</defs>
</svg>
