<svg xmlns="http://www.w3.org/2000/svg" width="1712" height="267" viewBox="0 0 1712 267" fill="none"> <path d="M929.05 131.78C946.66 131.78 958.85 123.65 958.85 105.27C958.85 86.89 946.66 78.76 929.05 78.76H895V131.76L929.05 131.78ZM877.19 64.24H931C955 64.24 976.67 75.65 976.67 105.24C976.67 134.65 955.78 145.49 931.39 145.49H895V199.68H877.2V64.24H877.19Z" fill="#0B1E46"></path> <path d="M1018.05 189.83C1038.38 189.83 1050.37 175.71 1050.37 156.16V150L1022.11 152.9C1005.86 154.45 997.11 161.03 997.11 172.64C997.15 182.09 1003.34 189.83 1018.05 189.83ZM1020.17 142.03L1050.36 139.13V129.46C1050.36 117.65 1043.01 108.17 1026.36 108.36C1012.62 108.36 1001.79 114.36 1001.01 128.1H985.34C986.11 105.1 1003.91 95.97 1026.34 95.97C1053.05 95.97 1067.18 108.97 1067.18 132.74V199.74H1051.7V178.79C1045.53 193.12 1032.17 202 1013 202C990.17 202 980.29 189.23 980.29 173.17C980.31 154.42 994.05 144.55 1020.17 142V142.03Z" fill="#0B1E46"></path> <path d="M1181.4 98.3H1197.07V117.45C1202.69 103.71 1214.49 95.97 1230.16 95.97C1245.64 95.97 1256.87 103.33 1260.54 118.04C1266.16 103.91 1278.34 95.97 1294.22 95.97C1313.76 95.97 1326.34 108.17 1326.34 131.19V199.7H1309.34V135.7C1309.34 119.82 1302.34 109.96 1288.45 109.96C1272.58 109.96 1262.32 122.54 1262.32 143.44V199.7H1245.48V135.7C1245.48 119.83 1238.32 109.97 1224.39 109.97C1208.52 109.97 1198.46 122.54 1198.46 143.45V199.76H1181.46L1181.4 98.3Z" fill="#0B1E46"></path> <path d="M1419.56 142.62C1419.17 121.52 1407.94 108.36 1390.72 108.36C1374.08 108.36 1361.72 119.97 1360.15 142.62H1419.56ZM1390.72 96C1419.72 96 1436.39 113.61 1436.39 151.55V153.87H1360C1361.36 177.47 1373.94 189.67 1392.13 189.67C1405.67 189.67 1414.77 182.67 1419.03 172.25L1435.09 173.25C1429.87 190.86 1414.97 202.08 1392.09 202.08C1362.87 202.08 1342.94 184.85 1342.94 149.08C1342.93 113.39 1363.05 96 1390.72 96Z" fill="#0B1E46"></path> <path d="M1454.25 98.3H1469.92V117.84C1475.73 104.1 1488.31 95.97 1506.11 95.97C1528.17 95.97 1540.75 107.97 1540.75 132.74V199.74H1523.75V138.16C1523.75 119.77 1516.59 109.91 1500.33 109.91C1481.33 109.91 1471.33 123.07 1471.33 143.39V199.7H1454.33V98.3H1454.25Z" fill="#0B1E46"></path> <path d="M1589.65 111.27V170.49C1589.65 183.25 1592.36 187.32 1602.65 187.32C1606.6 187.252 1610.54 186.918 1614.45 186.32V199.9C1609.54 200.843 1604.55 201.295 1599.55 201.25C1579.81 201.25 1572.65 193.51 1572.65 173.2V111.27H1551.36V98.69H1567.62C1572.07 98.69 1573.81 96.95 1573.81 92.69V76.05H1589.68V98.3H1614.45V111.3L1589.65 111.27Z" fill="#0B1E46"></path> <path d="M1641.72 170.09C1643.08 183.64 1653.14 189.64 1669.2 189.64C1684.3 189.64 1694.35 184.23 1694.35 173.97C1694.35 166.42 1688.74 161.97 1674.81 157.71L1652.94 151.33C1637.26 146.68 1629.33 137.2 1629.33 123.46C1629.33 103.91 1645.39 95.98 1666.49 95.98C1688.94 95.98 1706.74 105.08 1708.67 125.98L1693.19 126.98C1691.45 114.21 1680.42 108.4 1666.49 108.4C1654.1 108.02 1645.97 113.4 1645.97 122.92C1645.97 131.04 1651.78 135.68 1662.42 138.79L1684.48 145.18C1701.48 150.02 1711.18 158.53 1711.18 173.18C1711.18 191.96 1695.12 202.02 1668.8 202.02C1644.03 202.02 1627.97 192.53 1626.23 170.86L1641.72 170.09Z" fill="#0B1E46"></path> <path d="M1166 98.5L1128.26 211.5C1121.26 233.56 1113.94 240.91 1094.26 240.91C1091.16 240.91 1087.26 240.72 1083.04 240.33V227.18C1086.52 227.37 1090.2 227.57 1093.29 227.57C1103.74 227.57 1108.19 223.7 1112.84 209L1115.74 199.91L1077.31 98.5H1095.89L1124.04 178.5L1147.77 98.5H1166Z" fill="#0B1E46"></path> <path d="M332.74 135.3C332.74 97.39 360.89 68.67 399.36 68.67C430.09 68.67 454.02 87.67 461.56 115.05H433.4C427.33 101.8 415 93.7 399.17 93.7C375.43 93.7 359.24 111.19 359.24 135.3C359.24 159.41 375.43 176.89 399.17 176.89C415 176.89 427.33 168.79 433.4 155.54H461.56C454.02 182.96 430.09 201.92 399.36 201.92C360.89 201.91 332.74 173.2 332.74 135.3Z" fill="#0B1E46"></path> <path d="M501.36 64.24H475.04V199.71H501.36V64.24Z" fill="#0B1E46"></path> <path d="M542.91 149.1C542.91 165.84 554.32 176.89 569.04 176.89C583.76 176.89 595.18 165.89 595.18 149.1C595.18 132.54 583.77 121.31 569.04 121.31C554.31 121.31 542.91 132.54 542.91 149.1ZM621.91 149.1C621.91 179.65 598.72 201.92 569.09 201.92C539.64 201.92 516.46 179.47 516.46 149.1C516.46 118.55 540.01 96.28 569.09 96.28C598.3 96.28 621.86 118.55 621.86 149.1H621.91Z" fill="#0B1E46"></path> <path d="M730.59 98.49V199.71H704.27V185.71C696.91 196 687 201.91 673 201.91C650.73 201.91 636.93 186.64 636.93 161.97V98.48H663.25V156.27C663.25 169.52 668.25 176.88 681.84 176.88C696.38 176.88 704.3 168.23 704.3 151.67V98.48H730.61L730.59 98.49Z" fill="#0B1E46"></path> <path d="M823.22 149.1C823.22 132.54 811.99 121.31 797.28 121.31C782.57 121.31 771.7 132.54 771.7 149.1C771.7 165.84 782.7 176.89 797.28 176.89C812 176.89 823.22 165.84 823.22 149.1ZM849.53 64.24V199.71H823.21V186.09C816.21 195.66 805.54 201.92 791.38 201.92C765.06 201.92 745.19 180.2 745.19 149.1C745.19 117.81 765.19 96.28 791.19 96.28C797.46 96.1559 803.664 97.5859 809.248 100.442C814.831 103.299 819.621 107.493 823.19 112.65V64.24H849.53Z" fill="#0B1E46"></path> <path d="M133.09 266.18C206.594 266.18 266.18 206.594 266.18 133.09C266.18 59.5864 206.594 0 133.09 0C59.5864 0 0 59.5864 0 133.09C0 206.594 59.5864 266.18 133.09 266.18Z" fill="#6496DC"></path> <path d="M104.5 170.3L190.69 84.11C192.821 81.9772 195.351 80.2851 198.135 79.1307C200.92 77.9763 203.905 77.3821 206.92 77.3821C209.935 77.3821 212.92 77.9763 215.705 79.1307C218.489 80.2851 221.019 81.9772 223.15 84.11V84.11C225.283 86.2405 226.975 88.7705 228.129 91.5554C229.284 94.3403 229.878 97.3254 229.878 100.34C229.878 103.355 229.284 106.34 228.129 109.125C226.975 111.91 225.283 114.44 223.15 116.57L169.5 170.3C160.876 178.91 149.187 183.746 137 183.746C124.813 183.746 113.124 178.91 104.5 170.3Z" fill="white"></path> <path d="M161.68 95.89L75.4901 182.08C73.3596 184.213 70.8295 185.905 68.0447 187.059C65.2598 188.214 62.2747 188.808 59.2601 188.808C56.2454 188.808 53.2603 188.214 50.4754 187.059C47.6906 185.905 45.1606 184.213 43.0301 182.08V182.08C38.7372 177.769 36.3269 171.934 36.3269 165.85C36.3269 159.766 38.7372 153.931 43.0301 149.62L96.6801 95.89C105.305 87.2798 116.993 82.4438 129.18 82.4438C141.367 82.4438 153.056 87.2798 161.68 95.89Z" fill="white"></path> </svg> 